<mxfile host="app.diagrams.net" modified="2022-05-25T08:03:23.708Z" agent="5.0 (Macintosh; Intel Mac OS X 10_15_7) AppleWebKit/537.36 (KHTML, like Gecko) Chrome/101.0.4951.54 Safari/537.36" etag="nEVm3jRAjS2IFmAZw2rN" version="18.0.2" type="github">
  <diagram id="1n2VL4TqYTgerGdvk2_B" name="Page-1">
    <mxGraphModel dx="970" dy="662" grid="1" gridSize="10" guides="1" tooltips="1" connect="1" arrows="1" fold="1" page="1" pageScale="1" pageWidth="827" pageHeight="1169" math="0" shadow="0">
      <root>
        <mxCell id="0" />
        <mxCell id="1" parent="0" />
        <mxCell id="20XuZtCm6tKtPf8A1uEs-3" value="" style="edgeStyle=orthogonalEdgeStyle;rounded=0;orthogonalLoop=1;jettySize=auto;html=1;" edge="1" parent="1" source="20XuZtCm6tKtPf8A1uEs-1" target="20XuZtCm6tKtPf8A1uEs-2">
          <mxGeometry relative="1" as="geometry" />
        </mxCell>
        <mxCell id="20XuZtCm6tKtPf8A1uEs-1" value="start" style="ellipse;whiteSpace=wrap;html=1;" vertex="1" parent="1">
          <mxGeometry x="200" y="50" width="120" height="40" as="geometry" />
        </mxCell>
        <mxCell id="20XuZtCm6tKtPf8A1uEs-5" value="" style="edgeStyle=orthogonalEdgeStyle;rounded=0;orthogonalLoop=1;jettySize=auto;html=1;" edge="1" parent="1" source="20XuZtCm6tKtPf8A1uEs-2" target="20XuZtCm6tKtPf8A1uEs-4">
          <mxGeometry relative="1" as="geometry" />
        </mxCell>
        <mxCell id="20XuZtCm6tKtPf8A1uEs-2" value="Accessmuser&#39;s payment link" style="whiteSpace=wrap;html=1;" vertex="1" parent="1">
          <mxGeometry x="200" y="120" width="120" height="40" as="geometry" />
        </mxCell>
        <mxCell id="20XuZtCm6tKtPf8A1uEs-9" value="" style="edgeStyle=orthogonalEdgeStyle;rounded=0;orthogonalLoop=1;jettySize=auto;html=1;" edge="1" parent="1" source="20XuZtCm6tKtPf8A1uEs-4" target="20XuZtCm6tKtPf8A1uEs-8">
          <mxGeometry relative="1" as="geometry" />
        </mxCell>
        <mxCell id="20XuZtCm6tKtPf8A1uEs-4" value="customer enters payment details" style="whiteSpace=wrap;html=1;" vertex="1" parent="1">
          <mxGeometry x="200" y="200" width="120" height="50" as="geometry" />
        </mxCell>
        <mxCell id="20XuZtCm6tKtPf8A1uEs-11" value="" style="edgeStyle=orthogonalEdgeStyle;rounded=0;orthogonalLoop=1;jettySize=auto;html=1;" edge="1" parent="1" source="20XuZtCm6tKtPf8A1uEs-8" target="20XuZtCm6tKtPf8A1uEs-10">
          <mxGeometry relative="1" as="geometry" />
        </mxCell>
        <mxCell id="20XuZtCm6tKtPf8A1uEs-8" value="is link valid ?" style="rhombus;whiteSpace=wrap;html=1;" vertex="1" parent="1">
          <mxGeometry x="220" y="280" width="80" height="80" as="geometry" />
        </mxCell>
        <mxCell id="20XuZtCm6tKtPf8A1uEs-13" value="" style="edgeStyle=orthogonalEdgeStyle;rounded=0;orthogonalLoop=1;jettySize=auto;html=1;" edge="1" parent="1" source="20XuZtCm6tKtPf8A1uEs-10" target="20XuZtCm6tKtPf8A1uEs-12">
          <mxGeometry relative="1" as="geometry" />
        </mxCell>
        <mxCell id="20XuZtCm6tKtPf8A1uEs-10" value="debit customer payment details" style="whiteSpace=wrap;html=1;" vertex="1" parent="1">
          <mxGeometry x="200" y="400" width="120" height="60" as="geometry" />
        </mxCell>
        <mxCell id="20XuZtCm6tKtPf8A1uEs-15" value="" style="edgeStyle=orthogonalEdgeStyle;rounded=0;orthogonalLoop=1;jettySize=auto;html=1;" edge="1" parent="1" source="20XuZtCm6tKtPf8A1uEs-12" target="20XuZtCm6tKtPf8A1uEs-14">
          <mxGeometry relative="1" as="geometry" />
        </mxCell>
        <mxCell id="20XuZtCm6tKtPf8A1uEs-12" value="credit payment link user wallet" style="whiteSpace=wrap;html=1;" vertex="1" parent="1">
          <mxGeometry x="200" y="490" width="120" height="60" as="geometry" />
        </mxCell>
        <mxCell id="20XuZtCm6tKtPf8A1uEs-14" value="stop" style="ellipse;whiteSpace=wrap;html=1;" vertex="1" parent="1">
          <mxGeometry x="200" y="600" width="120" height="40" as="geometry" />
        </mxCell>
        <mxCell id="20XuZtCm6tKtPf8A1uEs-16" value="Yes" style="text;html=1;align=center;verticalAlign=middle;resizable=0;points=[];autosize=1;strokeColor=none;fillColor=none;" vertex="1" parent="1">
          <mxGeometry x="260" y="370" width="40" height="20" as="geometry" />
        </mxCell>
        <mxCell id="20XuZtCm6tKtPf8A1uEs-17" value="" style="endArrow=classic;html=1;rounded=0;exitX=1;exitY=0.5;exitDx=0;exitDy=0;" edge="1" parent="1" source="20XuZtCm6tKtPf8A1uEs-8">
          <mxGeometry width="50" height="50" relative="1" as="geometry">
            <mxPoint x="380" y="500" as="sourcePoint" />
            <mxPoint x="440" y="320" as="targetPoint" />
          </mxGeometry>
        </mxCell>
        <mxCell id="20XuZtCm6tKtPf8A1uEs-18" value="" style="endArrow=classic;html=1;rounded=0;" edge="1" parent="1">
          <mxGeometry width="50" height="50" relative="1" as="geometry">
            <mxPoint x="440" y="320" as="sourcePoint" />
            <mxPoint x="440" y="570" as="targetPoint" />
          </mxGeometry>
        </mxCell>
        <mxCell id="20XuZtCm6tKtPf8A1uEs-19" value="" style="endArrow=classic;html=1;rounded=0;" edge="1" parent="1">
          <mxGeometry width="50" height="50" relative="1" as="geometry">
            <mxPoint x="440" y="570" as="sourcePoint" />
            <mxPoint x="270" y="570" as="targetPoint" />
          </mxGeometry>
        </mxCell>
        <mxCell id="20XuZtCm6tKtPf8A1uEs-20" value="No" style="text;html=1;align=center;verticalAlign=middle;resizable=0;points=[];autosize=1;strokeColor=none;fillColor=none;" vertex="1" parent="1">
          <mxGeometry x="305" y="290" width="30" height="20" as="geometry" />
        </mxCell>
      </root>
    </mxGraphModel>
  </diagram>
</mxfile>
